<svg width="22" height="18" viewBox="0 0 22 18" fill="none" xmlns="http://www.w3.org/2000/svg">
<g clip-path="url(#clip0)">
<path d="M2.2275 11.4504C2.22062 11.3836 2.2 11.3203 2.2 11.2535C2.2 10.0125 3.18656 9.00352 4.4 9.00352C4.83312 9.00352 5.23188 9.13711 5.57219 9.35508C6.17719 7.99102 7.51437 7.03477 9.075 7.03477C11.1994 7.03477 12.925 8.79609 12.925 10.9723C12.925 11.0777 12.9009 11.1762 12.8941 11.2781C14.5991 11.4082 15.95 12.8496 15.95 14.6285C15.95 16.4918 14.4719 18.0035 12.65 18.0035L3.3 18.0035C1.47812 18.0035 -2.38419e-07 16.4918 -2.38419e-07 14.6285C-2.38419e-07 13.1484 0.934999 11.9074 2.2275 11.4504V11.4504ZM17.0225 10.6559C18.5247 9.11953 18.5247 6.62344 17.0225 5.09063C15.5203 3.5543 13.0797 3.5543 11.5775 5.09063C11.2441 5.43164 10.9966 5.82539 10.8109 6.24023C10.4741 6.11016 10.12 6.0293 9.75562 5.97656L8.73125 2.85117C8.59375 2.43281 8.98219 2.03906 9.39125 2.17617L12.4094 3.20625L13.8359 0.295312C14.025 -0.0984375 14.575 -0.0984375 14.7675 0.295312L16.1906 3.20625L19.2122 2.17617C19.6178 2.03906 20.0063 2.43633 19.8722 2.85117L18.865 5.93789L21.7113 7.39687C22.0963 7.59375 22.0963 8.15273 21.7113 8.34961L18.865 9.80508L19.8722 12.8918C20.0097 13.3102 19.6213 13.7039 19.2122 13.5668L16.5963 12.6773C16.3866 12.2414 16.115 11.8441 15.785 11.4996C16.2353 11.3098 16.6581 11.0285 17.0225 10.6559V10.6559ZM17.1875 7.87148C17.1875 9.30586 16.1803 10.5012 14.8534 10.7648C14.5784 10.5996 14.2931 10.4555 13.9872 10.3535C13.8016 8.79609 12.9216 7.45312 11.6703 6.66211C12.1241 5.63906 13.1313 4.92187 14.3 4.92187C15.8916 4.92187 17.1875 6.24375 17.1875 7.87148V7.87148Z" fill="white"/>
</g>
<defs>
<clipPath id="clip0">
<rect width="22" height="18" fill="white" transform="matrix(-1 0 0 1 22 0)"/>
</clipPath>
</defs>
</svg>
