<svg width="484" height="111" viewBox="0 0 484 111" fill="none" xmlns="http://www.w3.org/2000/svg">
<g clip-path="url(#clip0)">
<path d="M484 -175H0V103.667H484V-175Z" fill="url(#paint0_linear)"/>
<g opacity="0.59">
<path opacity="0.59" d="M84.3333 11.9389C85.8 11.9389 85.8 9.61667 84.3333 9.61667C82.8667 9.61667 82.8667 11.9389 84.3333 11.9389Z" fill="#F1F2F2"/>
</g>
<path d="M222.628 110.389C241.427 110.389 256.667 95.1491 256.667 76.35C256.667 57.5508 241.427 42.3111 222.628 42.3111C203.829 42.3111 188.589 57.5508 188.589 76.35C188.589 95.1491 203.829 110.389 222.628 110.389Z" fill="url(#paint1_radial)"/>
<path opacity="0.79" d="M112.139 57.1611C107.433 56.3056 104.378 52.5778 105.294 48.85C106.211 45.0611 110.978 42.4333 115.867 43.1667C115.561 40.7222 117.7 38.4611 120.694 37.9722C123.689 37.4833 126.683 38.8278 127.661 41.15C127.478 40.4778 126.744 37.0556 129.433 33.6944C132.122 30.4556 136.217 29.6 137.072 29.4167C137.622 27.0944 139.944 25.3222 142.756 25.1389C145.933 24.8944 148.989 26.7278 149.661 29.4167C154.306 28.0722 159.378 29.2333 162.311 32.1056C164.756 34.55 165.306 37.9722 163.717 40.9667C165.611 38.4611 169.217 37.1778 172.761 37.7278C176.428 38.2778 179.3 40.6 179.85 43.5945C180.033 43.5333 183.822 41.8833 187.489 43.5945C190.117 44.8167 191.583 47.2 191.156 49.6445C192.561 48.1167 194.883 47.6278 196.533 48.3C198.183 48.9722 198.917 51.05 198.367 52.5167C196.35 58.2 174.717 58.8722 174.717 58.8722C174.717 58.8722 160.967 59.4222 146.667 59.3C133.1 59.2389 126.317 58.6889 123.444 58.3833C118.8 58.0778 114.889 57.5889 112.139 57.1611V57.1611Z" fill="url(#paint2_linear)"/>
<path opacity="0.79" d="M7.33334 40.2944C2.62778 39.4389 -0.427775 35.7111 0.488892 31.9833C1.40556 28.1945 6.17223 25.5667 11.0611 26.3C10.7556 23.8556 12.8944 21.5944 15.8889 21.1056C18.8833 20.6167 21.8778 21.9611 22.8556 24.2833C22.6722 23.6111 21.9389 20.1889 24.6278 16.8278C27.3167 13.5889 31.4111 12.7333 32.2667 12.55C32.8167 10.2278 35.1389 8.45555 37.95 8.27222C41.1278 8.02778 44.1833 9.86111 44.8556 12.55C49.5 11.2056 54.5722 12.3667 57.5056 15.2389C59.95 17.6833 60.5 21.1055 58.9111 24.1C60.8056 21.5944 64.4111 20.3111 67.9556 20.8611C71.6222 21.4111 74.4945 23.7333 75.0445 26.7278C75.2278 26.6667 79.0167 25.0167 82.6833 26.7278C85.3111 27.95 86.7778 30.3333 86.35 32.7778C87.7556 31.25 90.0778 30.7611 91.7278 31.4333C93.3778 32.1056 94.1111 34.1833 93.5611 35.65C91.5445 41.3333 69.9111 42.0056 69.9111 42.0056C69.9111 42.0056 56.1611 42.5556 41.8611 42.4333C28.2944 42.3722 21.5111 41.8222 18.6389 41.5167C13.9944 41.2111 10.0833 40.6611 7.33334 40.2944V40.2944Z" fill="url(#paint3_linear)"/>
<path opacity="0.79" d="M326.028 33.5722C321.322 32.7167 318.267 28.9889 319.183 25.2611C320.1 21.4722 324.867 18.8445 329.756 19.5778C329.45 17.1333 331.589 14.8722 334.583 14.3833C337.578 13.8945 340.572 15.2389 341.55 17.5611C341.367 16.8889 340.633 13.4667 343.322 10.1056C346.011 6.86667 350.106 6.01112 350.961 5.82778C351.511 3.50556 353.833 1.73334 356.644 1.55001C359.822 1.30556 362.878 3.1389 363.55 5.82778C368.194 4.48334 373.267 5.64445 376.2 8.51667C378.644 10.9611 379.194 14.3833 377.606 17.3778C379.5 14.8722 383.106 13.5889 386.65 14.1389C390.317 14.6889 393.189 17.0111 393.739 20.0056C393.922 19.9445 397.711 18.2945 401.378 20.0056C404.006 21.2278 405.472 23.6111 405.044 26.0556C406.45 24.5278 408.772 24.0389 410.422 24.7111C412.072 25.3833 412.806 27.4611 412.256 28.9278C410.239 34.6111 388.606 35.2833 388.606 35.2833C388.606 35.2833 374.856 35.8333 360.556 35.7111C346.989 35.65 340.206 35.1 337.333 34.7944C332.689 34.4889 328.839 34 326.028 33.5722V33.5722Z" fill="url(#paint4_linear)"/>
<path opacity="0.79" d="M267.056 47.6889C260.089 46.5278 255.628 41.4556 256.911 36.4444C258.256 31.25 265.283 27.7667 272.494 28.7444C272.067 25.4444 275.183 22.3889 279.583 21.7167C283.983 21.0444 288.383 22.8778 289.911 25.9944C289.667 25.0778 288.567 20.4333 292.6 15.9111C296.511 11.5111 302.622 10.35 303.906 10.1055C304.7 6.92777 308.183 4.60555 312.278 4.29999C316.983 3.99444 321.506 6.43888 322.483 10.1055C329.328 8.33333 336.844 9.79999 341.122 13.7722C344.728 17.1333 345.522 21.7778 343.2 25.8722C346.011 22.5111 351.328 20.7389 356.583 21.4722C362.022 22.2056 366.239 25.3833 367.033 29.4167C367.278 29.2944 372.9 27.0944 378.339 29.4167C382.189 31.0667 384.328 34.3056 383.778 37.6667C385.856 35.5889 389.339 34.9167 391.722 35.8333C394.228 36.75 395.267 39.5611 394.472 41.5778C391.478 49.2778 359.578 50.1944 359.517 50.1944C359.517 50.1944 339.289 50.9278 318.144 50.8056C298.161 50.6833 288.139 49.95 283.861 49.5833C276.894 48.9111 271.15 48.2389 267.056 47.6889V47.6889Z" fill="url(#paint5_linear)"/>
<path d="M484 56.9778C481.8 54.35 479.6 51.7833 477.461 49.1556C477.522 49.7667 478.072 56.6111 474.344 61.4389C470.983 65.7778 466.767 65.0445 466.156 64.9222C464.872 65.0445 457.172 65.7167 451.672 57.8945C449.533 54.8389 448.433 51.4778 447.883 49.1556L437.8 57.0389C429 45.55 417.328 32.4111 402.6 20.25C392.456 11.9389 382.861 5.70556 374.306 1C371.25 8.76111 363 26.9111 346.683 39.5C331.161 51.4778 316.617 52.0278 310.261 51.7833C308.367 51.1111 304.7 49.4 301.461 44.7556C299.933 42.6167 298.956 40.4167 298.344 38.6445C293.211 46.5278 284.839 57.5889 272.556 66.6333C257.889 77.5111 226.172 83.1945 222.261 78.9167C217.006 73.05 217.189 64.1278 217.25 63.15C212.239 69.2611 207.167 75.4333 202.156 81.5444C195.006 73.5389 185.411 64.3111 173.25 56.1833C162.25 48.7889 152.044 44.2056 143.733 41.3333C136.522 48.9722 114.339 71.0944 87.8167 75.4944C75.7778 77.5111 62.0889 81.9111 55.7944 71.0945C50.8444 62.7222 52.7389 49.7667 53.9 43.9611C44.1833 51.05 33.7333 59.9111 23.1 71.0945C19.8 74.5778 16.6222 78.1222 13.6889 81.6056C10.0833 80.5056 0.244444 73.8445 0.244444 73.8445L0 123.467C0 123.467 321.2 121.756 484 120.9" fill="url(#paint6_linear)"/>
<path d="M0 64.7389C2.44444 62.6611 4.88889 60.5222 7.39444 58.4444C7.33333 58.8722 6.78333 63.6389 10.45 67C13.75 69.9944 17.8444 69.5056 18.3944 69.4444C19.6778 69.5667 27.1333 69.9944 32.45 64.5556C34.5278 62.4167 35.5667 60.0944 36.1167 58.4444C39.3556 60.2778 42.6556 62.1111 45.8944 63.9444C54.45 55.8778 65.8167 46.7111 80.1167 38.2778C89.9556 32.4722 99.3056 28.1333 107.617 24.8333C110.611 30.2722 118.617 42.9222 134.506 51.7222C149.6 60.0944 163.717 60.4611 169.95 60.2778C171.783 59.7889 175.389 58.6278 178.506 55.3889C179.972 53.8611 180.95 52.3333 181.561 51.1111C186.511 56.6111 194.7 64.3111 206.617 70.6667C220.856 78.2444 251.717 82.2778 255.506 79.2222C260.578 75.1278 260.394 68.8944 260.394 68.2222L275.061 81.0556C282.028 75.4944 291.378 69.0167 303.172 63.3333C313.867 58.1389 323.767 54.9611 331.894 52.9444C338.922 58.2611 360.494 73.7222 386.283 76.7778C398.017 78.1833 411.278 81.3 417.45 73.7222C422.217 67.8556 420.383 58.8722 419.283 54.7778C428.756 59.7278 438.9 65.9 449.228 73.7222C452.467 76.1667 455.522 78.6111 458.394 81.0556C461.939 80.2611 466.644 78.7944 471.472 75.6167C476.606 72.2556 484 69.3833 484.061 69.2611V110.389L0 108.556" fill="url(#paint7_linear)"/>
<path d="M0.305556 80.4445C12.0389 75.1889 26.7667 70.0556 44 67.2444C93.1944 59.1778 126.806 75.8 181.5 89.0611C207.35 95.2945 242.733 98.7167 313.5 105.561C388.667 112.833 484 118.15 484 118.15V141.617C484 141.617 7.76111 162.517 0 164.472C0.305556 80.4445 0 164.411 0.305556 80.4445Z" fill="url(#paint8_linear)"/>
<path d="M0.305557 101.772C43.0222 114.544 117.15 134.528 204.417 116.5C213.644 114.606 210.467 114.911 227.028 111C307.389 91.9945 484 98.5945 484 98.5945C484 98.5945 484 157.567 484 157.139C484 156.711 155.65 220.633 1.03889 129.883C0.0611128 109.594 0.916668 127.928 0.427779 105.5C0.366668 104.4 0.366668 103.117 0.305557 101.772V101.772Z" fill="url(#paint9_linear)"/>
</g>
<defs>
<linearGradient id="paint0_linear" x1="242" y1="-175" x2="242" y2="103.667" gradientUnits="userSpaceOnUse">
<stop offset="0.028225" stop-color="#202B48"/>
<stop offset="0.3051" stop-color="#5B72A6"/>
<stop offset="0.5308" stop-color="#977AA6"/>
<stop offset="0.7102" stop-color="#D19EAF"/>
<stop offset="0.9949" stop-color="#F4F3B4"/>
</linearGradient>
<radialGradient id="paint1_radial" cx="0" cy="0" r="1" gradientUnits="userSpaceOnUse" gradientTransform="translate(222.658 76.3439) scale(34.0438)">
<stop offset="0.010256" stop-color="#F4F3B0"/>
<stop offset="1" stop-color="#F9ED32"/>
</radialGradient>
<linearGradient id="paint2_linear" x1="151.843" y1="25.1817" x2="151.843" y2="59.4222" gradientUnits="userSpaceOnUse">
<stop stop-color="#BA9BC9"/>
<stop offset="0.9949" stop-color="#F4F3B4"/>
</linearGradient>
<linearGradient id="paint3_linear" x1="47.0556" y1="8.29055" x2="47.0556" y2="42.5311" gradientUnits="userSpaceOnUse">
<stop stop-color="#BA9BC9"/>
<stop offset="0.9949" stop-color="#F4F3B4"/>
</linearGradient>
<linearGradient id="paint4_linear" x1="365.768" y1="1.59278" x2="365.768" y2="35.8333" gradientUnits="userSpaceOnUse">
<stop stop-color="#BA9BC9"/>
<stop offset="0.9949" stop-color="#F4F3B4"/>
</linearGradient>
<linearGradient id="paint5_linear" x1="325.686" y1="4.2511" x2="325.686" y2="50.7383" gradientUnits="userSpaceOnUse">
<stop stop-color="#BA9BC9"/>
<stop offset="0.9949" stop-color="#F4F3B4"/>
</linearGradient>
<linearGradient id="paint6_linear" x1="242" y1="1" x2="242" y2="123.448" gradientUnits="userSpaceOnUse">
<stop offset="0.010236" stop-color="#00A79D"/>
<stop offset="1" stop-color="#1B75BC"/>
</linearGradient>
<linearGradient id="paint7_linear" x1="242" y1="24.8333" x2="242" y2="110.383" gradientUnits="userSpaceOnUse">
<stop stop-color="#00A9BD"/>
<stop offset="1" stop-color="#006582"/>
</linearGradient>
<linearGradient id="paint8_linear" x1="242" y1="65.0811" x2="242" y2="164.399" gradientUnits="userSpaceOnUse">
<stop stop-color="#509AB9"/>
<stop offset="1" stop-color="#004F68"/>
</linearGradient>
<linearGradient id="paint9_linear" x1="242.159" y1="97.4822" x2="242.159" y2="178.595" gradientUnits="userSpaceOnUse">
<stop stop-color="#56A4C4"/>
<stop offset="1" stop-color="#003151"/>
</linearGradient>
<clipPath id="clip0">
<rect width="484" height="374" fill="white" transform="translate(0 -175)"/>
</clipPath>
</defs>
</svg>
